<?xml version="1.0" standalone="no"?>
<!DOCTYPE svg PUBLIC "-//W3C//DTD SVG 1.1//EN" 
  "http://www.w3.org/Graphics/SVG/1.1/DTD/svg11.dtd">
<svg width="450.000mm" height="250.000mm" version="1.1"
     viewBox="0 0 450.000 250.000"
     xmlns="http://www.w3.org/2000/svg"  xmlns:xlink="http://www.w3.org/1999/xlink" 
     xmlns:fpd="http://www.schaeffer-ag.de">
  <desc>Diese Zeichnung wurde mit dem Frontplatten Desinger durch den Export der Datei 'CentralControlUnitFrontPanel.fpd' erzeugt.</desc>
  <defs>
    <pattern id="revside-fill" x="1" y="1" width="1.5" height="1.5" patternUnits="userSpaceOnUse">
      <line x1="0" y1="0" x2="1" y2="1" style="stroke-width:0.2; stroke:black; stroke-dasharray:none;" />
      <line x1="0" y1="1" x2="1" y2="0" style="stroke-width:0.2; stroke:black; stroke-dasharray:none;" />
    </pattern>
    <pattern id="revside-fill-e0e0e0" x="1" y="1" width="1.5" height="1.5" patternUnits="userSpaceOnUse">
      <line x1="0" y1="0" x2="1.5" y2="1.5" style="stroke-width:0.2; stroke:#e0e0e0; stroke-dasharray:none;" />
      <line x1="0" y1="1.5" x2="1.5" y2="0" style="stroke-width:0.2; stroke:#e0e0e0; stroke-dasharray:none;" />
    </pattern>
  </defs>
<g transform="scale(1,-1) translate(0, -250.000)" 
   fill-rule="evenodd"
   style="stroke-linecap:round; stroke-linejoin:round; stroke-opacity:1.0; stroke-opacity:1.0;">
<path d="M450.000 250.000 
L0.000 250.000
L0.000 250.000
L0.000 0.000
L0.000 0.000
L450.000 0.000
L450.000 0.000
L450.000 250.000
L450.000 250.000z"
fill="#000000" vector-effect="non-scaling-stroke" stroke="#000000" stroke-width="0.100mm" />
<path d="M21.774 40.100 
L21.774 42.470
L21.774 44.839
L23.880 44.839
A1.184,1.184 0 0,0 23.880,42.470
L21.774 42.470
L23.880 42.470
A1.057,1.057 0 0,0 24.933,41.318
A3.553,3.553 0 0,1 25.032,40.100
M25.789 45.267 L25.789 45.004
M25.789 43.391 L25.789 40.100
M29.409 43.391 
L29.409 41.548
A1.445,1.445 0 0,0 26.546,41.252
A2.899,2.899 0 0,0 26.546,42.338
A1.444,1.444 0 0,0 29.409,42.075
L29.409 39.968
A1.188,1.188 0 0,0 28.455,38.784
A2.636,2.636 0 0,0 27.467,38.784
A1.190,1.190 0 0,0 26.678,39.343
M33.292 43.786 
L33.424 43.786
A1.048,1.048 0 0,1 34.477,44.839
L34.477 42.470
L34.477 40.100"
fill="none" vector-effect="non-scaling-stroke" stroke="#ffffff" stroke-width="0.200mm" fpd:engraving_ral_9010="1" />
<path d="M47.154 -19.693 
L47.154 -17.323
L47.154 -14.954
L49.260 -14.954
A1.184,1.184 0 0,0 49.260,-17.323
L47.154 -17.323
L49.260 -17.323
A1.057,1.057 0 0,0 50.313,-18.475
A3.553,3.553 0 0,1 50.412,-19.693
M51.169 -14.526 L51.169 -14.789
M51.169 -16.402 L51.169 -19.693
M54.789 -16.402 
L54.789 -18.245
A1.445,1.445 0 0,0 51.926,-18.541
A2.899,2.899 0 0,0 51.926,-17.455
A1.444,1.444 0 0,0 54.789,-17.718
L54.789 -19.825
A1.188,1.188 0 0,0 53.835,-21.009
A2.636,2.636 0 0,0 52.847,-21.009
A1.190,1.190 0 0,0 52.058,-20.450
M58.672 -16.007 
L58.804 -16.007
A1.048,1.048 0 0,1 59.857,-14.954
L59.857 -17.323
L59.857 -19.693"
fill="none" vector-effect="non-scaling-stroke" stroke="#ffffff" stroke-width="0.200mm" fpd:engraving_ral_9010="1" />
<path d="M86.543 40.100 
L86.543 42.470
L86.543 44.839
L88.649 44.839
A1.184,1.184 0 0,0 88.649,42.470
L86.543 42.470
L88.649 42.470
A1.057,1.057 0 0,0 89.702,41.318
A3.553,3.553 0 0,1 89.801,40.100
M90.558 45.267 L90.558 45.004
M90.558 43.391 L90.558 40.100
M94.178 43.391 
L94.178 41.548
A1.445,1.445 0 0,0 91.315,41.252
A2.899,2.899 0 0,0 91.315,42.338
A1.444,1.444 0 0,0 94.178,42.075
L94.178 39.968
A1.188,1.188 0 0,0 93.224,38.784
A2.636,2.636 0 0,0 92.236,38.784
A1.190,1.190 0 0,0 91.447,39.343
M98.094 43.523 
A1.309,1.309 0 0,0 99.411,44.839
L99.542 44.839
A1.328,1.328 0 0,0 100.233,42.371
L99.049 41.713
A1.846,1.846 0 0,1 98.061,40.100
L100.957 40.100"
fill="none" vector-effect="non-scaling-stroke" stroke="#ffffff" stroke-width="0.200mm" fpd:engraving_ral_9010="1" />
<path d="M152.234 40.100 
L152.234 42.470
L152.234 44.839
L154.340 44.839
A1.184,1.184 0 0,0 154.340,42.470
L152.234 42.470
L154.340 42.470
A1.057,1.057 0 0,0 155.393,41.318
A3.553,3.553 0 0,1 155.492,40.100
M156.249 45.267 L156.249 45.004
M156.249 43.391 L156.249 40.100
M159.869 43.391 
L159.869 41.548
A1.445,1.445 0 0,0 157.006,41.252
A2.899,2.899 0 0,0 157.006,42.338
A1.444,1.444 0 0,0 159.869,42.075
L159.869 39.968
A1.188,1.188 0 0,0 158.915,38.784
A2.636,2.636 0 0,0 157.927,38.784
A1.190,1.190 0 0,0 157.138,39.343
M163.884 43.654 
A1.179,1.179 0 0,0 165.069,44.839
L165.200 44.839
A1.179,1.179 0 0,0 166.385,43.654
A1.048,1.048 0 0,0 165.332,42.601
L164.937 42.601
L165.332 42.601
A1.179,1.179 0 0,0 166.517,41.416
A1.309,1.309 0 0,0 165.200,40.100
L165.069 40.100
A1.318,1.318 0 0,0 163.752,41.285"
fill="none" vector-effect="non-scaling-stroke" stroke="#ffffff" stroke-width="0.200mm" fpd:engraving_ral_9010="1" />
<path d="M217.727 40.100 
L217.727 42.470
L217.727 44.839
L219.833 44.839
A1.184,1.184 0 0,0 219.833,42.470
L217.727 42.470
L219.833 42.470
A1.057,1.057 0 0,0 220.886,41.318
A3.553,3.553 0 0,1 220.985,40.100
M221.742 45.267 L221.742 45.004
M221.742 43.391 L221.742 40.100
M225.362 43.391 
L225.362 41.548
A1.445,1.445 0 0,0 222.499,41.252
A2.899,2.899 0 0,0 222.499,42.338
A1.444,1.444 0 0,0 225.362,42.075
L225.362 39.968
A1.188,1.188 0 0,0 224.408,38.784
A2.636,2.636 0 0,0 223.420,38.784
A1.190,1.190 0 0,0 222.631,39.343
M231.483 40.100 
L231.483 42.470
L231.483 44.839
L231.352 44.839
L229.245 41.548
L229.245 41.416
L232.273 41.416"
fill="none" vector-effect="non-scaling-stroke" stroke="#ffffff" stroke-width="0.200mm" fpd:engraving_ral_9010="1" />
<path d="M283.451 40.100 
L283.451 42.470
L283.451 44.839
L285.557 44.839
A1.184,1.184 0 0,0 285.557,42.470
L283.451 42.470
L285.557 42.470
A1.057,1.057 0 0,0 286.610,41.318
A3.553,3.553 0 0,1 286.709,40.100
M287.466 45.267 L287.466 45.004
M287.466 43.391 L287.466 40.100
M291.086 43.391 
L291.086 41.548
A1.445,1.445 0 0,0 288.223,41.252
A2.899,2.899 0 0,0 288.223,42.338
A1.444,1.444 0 0,0 291.086,42.075
L291.086 39.968
A1.188,1.188 0 0,0 290.132,38.784
A2.636,2.636 0 0,0 289.144,38.784
A1.190,1.190 0 0,0 288.355,39.343
M297.701 44.839 
L295.595 44.839
L295.200 42.470
A1.847,1.847 0 0,0 296.483,43.029
A1.309,1.309 0 0,0 297.800,41.713
L297.800 41.581
A1.446,1.446 0 0,0 294.969,41.153"
fill="none" vector-effect="non-scaling-stroke" stroke="#ffffff" stroke-width="0.200mm" fpd:engraving_ral_9010="1" />
<path d="M352.720 44.839 
L352.720 41.811
A1.711,1.711 0 0,1 356.143,41.811
L356.143 44.839
M356.867 38.784 
L356.867 41.087
L356.867 43.391
L356.867 41.548
A1.445,1.445 0 0,1 359.730,41.252
A2.899,2.899 0 0,1 359.730,42.338
A1.444,1.444 0 0,1 356.867,42.075"
fill="none" vector-effect="non-scaling-stroke" stroke="#ffffff" stroke-width="0.200mm" fpd:engraving_ral_9010="1" />
<path d="M414.273 40.100 
L414.273 42.470
L414.273 44.839
L416.116 44.839
A1.413,1.413 0 0,0 417.169,44.378
A2.510,2.510 0 0,0 417.794,42.733
L417.794 42.206
A2.510,2.510 0 0,0 417.169,40.561
A1.413,1.413 0 0,0 416.116,40.100
L414.273 40.100
M418.551 41.285 
A2.899,2.899 0 0,0 418.551,42.371
A1.442,1.442 0 0,0 421.382,42.371
A2.899,2.899 0 0,0 421.382,41.285
A1.441,1.441 0 0,0 418.551,41.285
M422.171 43.391 
L423.093 40.100
L423.224 40.100
L424.146 43.391
L424.278 43.391
L425.199 40.100
L425.331 40.100
L426.252 43.391
M426.976 43.391 
L426.976 40.100
L426.976 42.075
A1.440,1.440 0 0,0 428.424,43.523
A1.048,1.048 0 0,0 429.477,42.469
L429.477 40.100"
fill="none" vector-effect="non-scaling-stroke" stroke="#ffffff" stroke-width="0.200mm" fpd:engraving_ral_9010="1" />
<path d="M370.978 60.861 
L373.018 60.861
A0.982,0.982 0 0,1 374.006,61.848
L374.006 62.243
A0.982,0.982 0 0,1 373.018,63.230
L370.978 63.230
L370.978 60.861
L370.978 58.491
M374.763 60.235 
L377.659 60.235
L377.659 60.498
A1.444,1.444 0 0,1 374.796,60.762
A2.899,2.899 0 0,1 374.796,59.676
A1.569,1.569 0 0,1 376.342,58.392
A1.589,1.589 0 0,1 377.692,59.149
M378.416 61.782 
L378.416 58.491
L378.416 60.466
A1.470,1.470 0 0,0 379.666,61.914
M381.575 63.230 
A0.655,0.655 0 0,1 380.917,62.572
L380.917 61.782
L381.575 61.782
L380.390 61.782
L380.917 61.782
L380.917 58.491
M382.365 59.676 
A2.899,2.899 0 0,0 382.365,60.762
A1.441,1.441 0 0,0 385.195,60.762
A2.899,2.899 0 0,0 385.195,59.676
A1.441,1.441 0 0,0 382.365,59.676
M385.985 61.782 
L385.985 58.491
L385.985 60.466
A1.470,1.470 0 0,0 387.235,61.914
M387.959 61.782 
L387.959 58.491
L387.959 60.466
A1.440,1.440 0 0,0 389.407,61.914
A0.917,0.917 0 0,0 390.329,60.992
L390.329 58.491
L390.329 60.466
A1.440,1.440 0 0,0 391.777,61.914
A0.917,0.917 0 0,0 392.698,60.992
L392.698 58.491
M393.653 61.157 
A0.927,0.927 0 0,0 394.541,61.914
L394.936 61.914
A0.917,0.917 0 0,0 395.858,60.992
L395.858 59.676
A1.596,1.596 0 0,0 394.311,58.392
A0.917,0.917 0 0,0 393.390,59.314
A0.790,0.790 0 0,0 394.048,60.104
L395.529 60.367
A0.394,0.394 0 0,1 395.858,60.663
L395.858 59.018
A0.524,0.524 0 0,1 396.384,58.491
M397.108 61.782 
L397.108 58.491
L397.108 60.466
A1.440,1.440 0 0,0 398.556,61.914
A1.048,1.048 0 0,0 399.609,60.861
L399.609 58.491
M403.197 60.893 
A1.440,1.440 0 0,1 400.399,60.762
A2.899,2.899 0 0,1 400.399,59.676
A1.441,1.441 0 0,1 403.197,59.511
M403.921 60.235 
L406.817 60.235
L406.817 60.498
A1.444,1.444 0 0,1 403.954,60.762
A2.899,2.899 0 0,1 403.954,59.676
A1.569,1.569 0 0,1 405.500,58.392
A1.589,1.589 0 0,1 406.850,59.149"
fill="none" vector-effect="non-scaling-stroke" stroke="#ffffff" stroke-width="0.200mm" fpd:engraving_ral_9010="1" />
<path d="M188.019 232.597 L188.019 229.093L188.019 225.589
M188.019 228.314 L192.886 232.597
M189.771 229.872 L193.081 225.589
M194.200 228.168 
L198.483 228.168
L198.483 228.558
A2.135,2.135 0 0,1 194.249,228.947
A4.287,4.287 0 0,1 194.249,227.341
A2.321,2.321 0 0,1 196.536,225.443
A2.350,2.350 0 0,1 198.531,226.562
M199.602 230.456 
L199.602 225.589
L199.602 228.509
A2.130,2.130 0 0,0 201.743,230.650
A1.355,1.355 0 0,0 203.106,229.288
L203.106 225.589
L203.106 228.509
A2.130,2.130 0 0,0 205.247,230.650
A1.355,1.355 0 0,0 206.610,229.288
L206.610 225.589
M207.681 223.642 
L207.681 227.049
L207.681 230.456
L207.681 227.730
A2.137,2.137 0 0,1 211.915,227.292
A4.287,4.287 0 0,1 211.915,228.898
A2.135,2.135 0 0,1 207.681,228.509
M213.083 228.168 
L217.365 228.168
L217.365 228.558
A2.135,2.135 0 0,1 213.131,228.947
A4.287,4.287 0 0,1 213.131,227.341
A2.321,2.321 0 0,1 215.419,225.443
A2.350,2.350 0 0,1 217.414,226.562
M218.485 230.456 
L218.485 225.589
L218.485 228.509
A2.173,2.173 0 0,0 220.334,230.650
M226.077 229.093 
L229.094 229.093
A1.452,1.452 0 0,1 230.554,230.553
L230.554 231.137
A1.452,1.452 0 0,1 229.094,232.597
L226.077 232.597
L226.077 229.093
L226.077 225.589
M231.673 228.168 
L235.956 228.168
L235.956 228.558
A2.135,2.135 0 0,1 231.722,228.947
A4.287,4.287 0 0,1 231.722,227.341
A2.321,2.321 0 0,1 234.009,225.443
A2.350,2.350 0 0,1 236.005,226.562
M241.358 232.597 
L241.358 229.093
L241.358 225.589
L241.358 228.509
A2.135,2.135 0 0,1 237.124,228.898
A4.287,4.287 0 0,1 237.124,227.292
A2.137,2.137 0 0,1 241.358,227.730
M242.769 229.531 
A1.371,1.371 0 0,0 244.083,230.650
L244.667 230.650
A1.355,1.355 0 0,0 246.030,229.288
L246.030 227.341
A2.360,2.360 0 0,0 243.743,225.443
A1.355,1.355 0 0,0 242.380,226.806
A1.168,1.168 0 0,0 243.353,227.974
L245.543 228.363
A0.583,0.583 0 0,1 246.030,228.801
L246.030 226.368
A0.775,0.775 0 0,1 246.809,225.589
M247.879 232.597 L247.879 229.093L247.879 225.589
M253.622 232.597 
L253.622 229.093
L253.622 225.589
L256.931 225.589
A1.752,1.752 0 0,1 256.931,229.093
L253.622 229.093
L256.542 229.093
A1.752,1.752 0 0,1 256.542,232.597
L253.622 232.597
M259.851 227.341 
A4.287,4.287 0 0,0 259.851,228.947
A2.131,2.131 0 0,0 264.037,228.947
A4.287,4.287 0 0,0 264.037,227.341
A2.131,2.131 0 0,0 259.851,227.341
M265.545 229.531 
A1.371,1.371 0 0,0 266.859,230.650
L267.443 230.650
A1.355,1.355 0 0,0 268.806,229.288
L268.806 227.341
A2.360,2.360 0 0,0 266.519,225.443
A1.355,1.355 0 0,0 265.156,226.806
A1.168,1.168 0 0,0 266.129,227.974
L268.319 228.363
A0.583,0.583 0 0,1 268.806,228.801
L268.806 226.368
A0.775,0.775 0 0,1 269.585,225.589
M270.655 230.456 
L270.655 225.589
L270.655 228.509
A2.173,2.173 0 0,0 272.505,230.650
M277.858 232.597 
L277.858 229.093
L277.858 225.589
L277.858 228.509
A2.135,2.135 0 0,1 273.624,228.898
A4.287,4.287 0 0,1 273.624,227.292
A2.137,2.137 0 0,1 277.858,227.730"
fill="none" vector-effect="non-scaling-stroke" stroke="#ffffff" stroke-width="0.400mm" fpd:engraving_ral_9010="1" />
<rect x="20.591" y="161.676" width="120.650" height="76.200" rx="1.500"
fill="#ffffff" vector-effect="non-scaling-stroke" stroke="#000000" stroke-width="0.100mm" 
/>
<path d="M450.000 250.000 
L0.000 250.000
L0.000 250.000
L0.000 0.000
L0.000 0.000
L450.000 0.000
L450.000 0.000
L450.000 250.000
L450.000 250.000"
fill="none" vector-effect="non-scaling-stroke" stroke="#000000" stroke-width="0.100mm" />
<path d="M-1.000 0.000 L1.000 0.000
M0.000 -1.000 L0.000 1.000"
fill="none" vector-effect="non-scaling-stroke" stroke="#ff0000" stroke-width="0.100mm" />
<path d="M79.916 199.776 L81.916 199.776
M80.916 198.776 L80.916 200.776"
fill="none" vector-effect="non-scaling-stroke" stroke="#ff0000" stroke-width="0.100mm" />
<path d="M20.774 40.000 L22.774 40.000
M21.774 39.000 L21.774 41.000"
fill="none" vector-effect="non-scaling-stroke" stroke="#ff0000" stroke-width="0.100mm" />
<path d="M46.154 -19.793 L48.154 -19.793
M47.154 -20.793 L47.154 -18.793"
fill="none" vector-effect="non-scaling-stroke" stroke="#ff0000" stroke-width="0.100mm" />
<path d="M85.543 40.000 L87.543 40.000
M86.543 39.000 L86.543 41.000"
fill="none" vector-effect="non-scaling-stroke" stroke="#ff0000" stroke-width="0.100mm" />
<path d="M151.234 40.000 L153.234 40.000
M152.234 39.000 L152.234 41.000"
fill="none" vector-effect="non-scaling-stroke" stroke="#ff0000" stroke-width="0.100mm" />
<path d="M216.727 40.000 L218.727 40.000
M217.727 39.000 L217.727 41.000"
fill="none" vector-effect="non-scaling-stroke" stroke="#ff0000" stroke-width="0.100mm" />
<path d="M282.451 40.000 L284.451 40.000
M283.451 39.000 L283.451 41.000"
fill="none" vector-effect="non-scaling-stroke" stroke="#ff0000" stroke-width="0.100mm" />
<path d="M351.719 40.000 L353.719 40.000
M352.719 39.000 L352.719 41.000"
fill="none" vector-effect="non-scaling-stroke" stroke="#ff0000" stroke-width="0.100mm" />
<path d="M413.273 40.000 L415.273 40.000
M414.273 39.000 L414.273 41.000"
fill="none" vector-effect="non-scaling-stroke" stroke="#ff0000" stroke-width="0.100mm" />
<path d="M369.978 58.391 L371.978 58.391
M370.978 57.391 L370.978 59.391"
fill="none" vector-effect="non-scaling-stroke" stroke="#ff0000" stroke-width="0.100mm" />
<path d="M187.019 225.389 L189.019 225.389
M188.019 224.389 L188.019 226.389"
fill="none" vector-effect="non-scaling-stroke" stroke="#ff0000" stroke-width="0.100mm" />
</g>
</svg>
